<?xml version="1.0" encoding="iso-8859-1"?>
<svg version="1.1" id="Layer_1" xmlns="http://www.w3.org/2000/svg" xmlns:xlink="http://www.w3.org/1999/xlink" x="0px" y="0px"
	 viewBox="0 0 512 512" style="enable-background:new 0 0 512 512; fill:#fa2c48;" xml:space="preserve">
<g>
	<g>
		<path d="M329.05,7.949c-22.624,0-44.67,7.751-63.049,21.775V10c0-5.523-4.477-10-10-10c-5.523,0-10,4.477-10,10v19.723
			C227.623,15.7,205.576,7.949,182.952,7.949c-60.961,0-110.556,54.651-110.556,121.826c0,21.953,7.823,46.649,23.251,73.402
			c12.824,22.238,30.962,45.783,52.451,68.089c31.192,32.377,73.144,65.091,99.405,71.562v23.566
			c-7.311,6.342-26.677,26.691-26.677,64.336c0,40.708,22.771,71.613,26.901,76.883c1.85,2.715,4.966,4.386,8.313,4.386
			c3.479,0,6.678-1.805,8.488-4.713c4.732-6.12,26.646-36.621,26.646-76.556c0-33.263-15.121-53.018-23.687-61.545
			c0.003-0.097,0.015-0.191,0.015-0.289v-26.901c26.374-8.081,66.373-39.559,96.4-70.728c21.489-22.306,39.627-45.851,52.451-68.089
			c15.429-26.753,23.251-51.449,23.251-73.402C439.606,62.6,390.011,7.949,329.05,7.949z M329.048,27.951
			c34.364-0.002,64.317,21.631,79.657,53.421c-7.046,0.195-16.234,0.699-26.996,1.861c-5.491,0.593-9.462,5.524-8.87,11.015
			c0.593,5.492,5.531,9.46,11.015,8.87c8.548-0.923,16.063-1.402,22.16-1.639c-12.222,19.312-37.429,54.259-75.036,83.066
			c-6.038-6.823-12.707-13.819-20.009-20.772c-1.799-14.589-4.957-28.385-8.815-41.07c7.008-2.74,14.219-5.245,21.621-7.485
			c5.286-1.6,8.274-7.182,6.674-12.468c-1.601-5.286-7.183-8.273-12.468-6.674c-7.638,2.312-15.084,4.897-22.344,7.713
			c-8.954-23.223-19.373-41.154-25.743-51.092C286.324,36.676,307.024,27.951,329.048,27.951z M314.425,196.237
			c-0.652,0.422-1.304,0.843-1.961,1.261c0.041-1.102,0.07-2.209,0.093-3.318C313.182,194.866,313.813,195.554,314.425,196.237z
			 M220.405,208.9c-0.63-6.213-0.982-12.552-0.982-18.991c0-5.273,0.239-10.478,0.669-15.604
			c10.788-9.921,22.912-19.612,36.356-28.321c13.053,8.455,24.858,17.837,35.407,27.455c0.477,5.405,0.749,10.898,0.749,16.47
			c0,6.596-0.365,13.089-1.024,19.447c-11.725,5.916-23.566,10.74-35.16,14.665C244.551,219.994,232.418,215.027,220.405,208.9z
			 M224.353,232.969c-0.021,0.005-0.042,0.009-0.064,0.014c-0.004-0.016-0.007-0.031-0.01-0.047
			C224.304,232.947,224.328,232.958,224.353,232.969z M224.977,143.857c1.079-4.597,2.277-9.081,3.572-13.432
			c2.948,1.405,5.853,2.855,8.708,4.354C233.027,137.735,228.934,140.768,224.977,143.857z M275.641,134.779
			c2.609-1.369,5.26-2.697,7.947-3.989c1.176,3.976,2.276,8.057,3.273,12.238C283.235,140.225,279.493,137.471,275.641,134.779z
			 M256.014,68.374c5.862,9.755,13.989,24.802,21.097,43.342c-6.914,3.25-13.617,6.725-20.059,10.444
			c-0.203,0.117-0.401,0.237-0.604,0.355c-0.202-0.117-0.401-0.238-0.604-0.355c-6.671-3.851-13.616-7.448-20.792-10.796
			C242.129,92.985,250.19,78.066,256.014,68.374z M182.952,27.949c22.031,0,42.737,8.731,59.17,24.762
			c-6.344,9.901-16.697,27.72-25.62,50.79c-7.021-2.702-14.213-5.194-21.587-7.426c-5.287-1.601-10.868,1.388-12.468,6.674
			c-1.6,5.286,1.388,10.868,6.674,12.468c7.13,2.158,14.076,4.568,20.841,7.19c-3.982,13.038-7.229,27.255-9.02,42.305
			c-6.918,6.644-13.258,13.317-19.024,19.833c-37.61-28.809-62.816-63.757-75.035-83.066c6.098,0.237,13.612,0.716,22.16,1.639
			c5.492,0.589,10.423-3.378,11.015-8.87c0.592-5.491-3.378-10.422-8.87-11.015c-11.218-1.211-20.727-1.707-27.88-1.884
			C118.651,49.571,148.598,27.949,182.952,27.949z M199.547,196.943c-0.362-0.232-0.713-0.472-1.073-0.706
			c0.335-0.374,0.684-0.752,1.023-1.128C199.513,195.721,199.526,196.333,199.547,196.943z M143.758,236.592
			c-32.894-39.146-51.362-77.193-51.362-106.817c0-4.267,0.238-8.472,0.693-12.602c13.849,21.177,39.103,54.464,75.964,82.763
			C157.185,214.981,148.768,228.134,143.758,236.592z M185.482,211.657c4.449,2.938,9.037,5.787,13.772,8.521
			c0.854,0.493,1.71,0.977,2.566,1.459c0.766,5.152,1.694,10.197,2.757,15.121c-16.047,2.587-29.88,3.658-39.873,4.066
			C169.579,233.124,176.526,222.938,185.482,211.657z M165.901,260.875c11.052-0.427,26.197-1.602,43.74-4.526
			c7.576,25.183,17.937,46.033,25.992,60.05C217.98,306.739,192.602,287.988,165.901,260.875z M271.176,430.731
			c0,22.348-8.541,41.595-15.197,53.201c-6.65-11.56-15.153-30.734-15.153-53.201c0-23.139,8.995-37.503,15.181-44.646
			C262.187,393.215,271.176,407.568,271.176,430.731z M256.014,311.443c-7.435-12.373-18.512-33.25-26.531-58.987
			c8.671-1.964,17.712-4.367,26.965-7.3c8.965,2.842,17.731,5.186,26.155,7.116C274.579,278.095,263.466,299.043,256.014,311.443z
			 M276.408,316.378c8.068-14.042,18.446-34.935,26.022-60.167c17.445,2.949,32.558,4.168,43.706,4.628
			C319.441,287.952,294.066,306.707,276.408,316.378z M307.474,236.655c1.017-4.723,1.913-9.556,2.658-14.489
			c1.172-0.653,2.343-1.313,3.511-1.988c4.735-2.734,9.323-5.583,13.772-8.522c8.964,11.291,15.916,21.485,20.791,29.186
			C338.039,240.436,323.894,239.343,307.474,236.655z M368.77,235.972c-5.05-8.474-13.344-21.354-24.926-36.036
			c36.188-27.783,61.184-60.367,75.189-81.585c0.374,3.752,0.573,7.562,0.573,11.424
			C419.606,159.243,401.339,197.044,368.77,235.972z"/>
	</g>
</g>
<g>
	<g>
		<path d="M363.393,95.673c-1.05-5.422-6.295-8.964-11.719-7.916l-0.555,0.108c-5.423,1.048-8.969,6.293-7.921,11.715
			c0.923,4.783,5.111,8.106,9.806,8.106c0.629,0,1.268-0.06,1.908-0.184l0.565-0.11C360.899,106.342,364.443,101.095,363.393,95.673
			z"/>
	</g>
</g>
<g>
	<g>
		<path d="M161.779,87.866l-0.555-0.108c-5.427-1.052-10.669,2.494-11.719,7.916s2.494,10.668,7.915,11.718l0.565,0.11
			c0.641,0.124,1.279,0.184,1.908,0.184c4.695,0,8.883-3.323,9.807-8.105C170.748,94.159,167.201,88.914,161.779,87.866z"/>
	</g>
</g>
<g>
	<g>
		<path d="M144.542,279.5c-5.523,0-10,4.477-10,10v0.833c0,5.523,4.477,10,10,10s10-4.477,10-10V289.5
			C154.542,283.977,150.065,279.5,144.542,279.5z"/>
	</g>
</g>
<g>
	<g>
		<path d="M154.542,386.673v-25.016c10.514-4.036,18-14.236,18-26.157c0-15.445-12.561-28.01-28-28.01c-15.439,0-28,12.565-28,28.01
			c0,11.921,7.486,22.12,18,26.157v22.537c-6.82,6.089-23.056,23.967-23.056,56.211c0,35.48,19.77,62.461,23.507,67.244
			c1.851,2.695,4.952,4.351,8.285,4.351c3.458,0,6.639-1.783,8.455-4.66c4.268-5.538,23.268-32.152,23.268-66.935
			C175.001,411.761,162.185,394.451,154.542,386.673z M144.542,327.49c4.411,0,8,3.593,8,8.01c0,4.417-3.589,8.01-8,8.01
			s-8-3.593-8-8.01C136.542,331.083,140.131,327.49,144.542,327.49z M143.22,483.612c-5.438-9.971-11.733-25.369-11.733-43.207
			c0-18.318,6.657-30.109,11.753-36.453c5.115,6.361,11.762,18.149,11.762,36.453C155.001,458.14,148.668,473.596,143.22,483.612z"
			/>
	</g>
</g>
<g>
	<g>
		<path d="M372.001,279.5c-5.523,0-10,4.477-10,10v0.833c0,5.523,4.477,10,10,10s10-4.477,10-10V289.5
			C382.001,283.977,377.524,279.5,372.001,279.5z"/>
	</g>
</g>
<g>
	<g>
		<path d="M382.002,386.674v-25.017h-0.001c10.514-4.036,18-14.236,18-26.157c0-15.445-12.561-28.01-28-28.01
			c-15.439,0-28,12.565-28,28.01c0,11.921,7.486,22.12,18,26.157v22.537c-6.82,6.088-23.056,23.967-23.056,56.211
			c0,35.487,19.777,62.471,23.509,67.246c1.852,2.693,4.951,4.349,8.283,4.349c3.457,0,6.636-1.782,8.453-4.656
			c4.263-5.531,23.271-32.148,23.271-66.938C402.461,411.762,389.645,394.452,382.002,386.674z M372.001,327.49
			c4.411,0,8,3.593,8,8.01c0,4.417-3.589,8.01-8,8.01s-8-3.593-8-8.01C364.001,331.083,367.59,327.49,372.001,327.49z
			 M370.679,483.613c-5.438-9.971-11.734-25.368-11.734-43.208c0-18.318,6.657-30.11,11.753-36.454
			c5.115,6.362,11.762,18.15,11.762,36.454C382.46,458.14,376.127,473.597,370.679,483.613z"/>
	</g>
</g>
</svg>
